<?xml version="1.0" standalone="no"?>
<!DOCTYPE svg PUBLIC "-//W3C//DTD SVG 20010904//EN"
 "http://www.w3.org/TR/2001/REC-SVG-20010904/DTD/svg10.dtd">
<svg version="1.0" xmlns="http://www.w3.org/2000/svg"
 width="375.000000pt" height="375.000000pt" viewBox="0 0 375.000000 375.000000"
 preserveAspectRatio="xMidYMid meet">
<metadata>
Created by potrace 1.11, written by Peter Selinger 2001-2013
</metadata>
<g transform="translate(0.000000,375.000000) scale(0.100000,-0.100000)"
fill="#000000" stroke="none">
<path d="M1530 3626 c-3 -2 -18 -7 -35 -10 -122 -21 -130 -26 -242 -136 -35
-34 -63 -68 -63 -76 0 -8 -4 -14 -10 -14 -5 0 -10 -6 -10 -12 0 -7 -7 -26 -15
-41 -8 -15 -17 -43 -21 -62 -6 -32 -14 -40 -36 -36 -5 0 -8 -3 -8 -8 0 -5 -8
-8 -17 -6 -10 1 -27 -2 -38 -8 -11 -6 -25 -12 -30 -13 -20 -3 -128 -77 -154
-104 -102 -107 -141 -202 -141 -340 0 -67 10 -124 46 -270 25 -102 79 -328
120 -503 67 -282 80 -357 56 -321 -24 35 -232 174 -261 174 -5 0 -22 5 -38 11
-72 29 -213 25 -320 -9 -17 -6 -34 -8 -37 -4 -3 3 -6 0 -6 -6 0 -6 -10 -14
-22 -18 -12 -3 -27 -12 -34 -18 -6 -6 -22 -18 -34 -26 -31 -21 -80 -73 -80
-85 0 -6 -12 -23 -26 -38 -14 -15 -37 -52 -50 -82 -24 -52 -25 -63 -22 -198 2
-109 7 -150 20 -175 10 -18 12 -29 5 -26 -7 4 -1 -5 13 -21 14 -16 19 -25 12
-20 -11 6 -12 3 -3 -13 6 -11 18 -22 26 -26 9 -3 14 -10 11 -15 -4 -5 -1 -11
4 -13 6 -2 12 -11 14 -21 3 -22 85 -107 103 -107 8 0 16 -7 19 -15 4 -8 11
-15 16 -15 5 0 36 -20 68 -45 32 -25 62 -45 66 -45 4 0 -35 32 -86 70 -51 39
-90 70 -86 70 16 0 181 -133 178 -145 -2 -11 58 -65 73 -65 3 0 68 -47 144
-104 107 -81 141 -102 150 -93 9 9 11 8 6 -4 -3 -9 2 -22 12 -30 16 -13 17
-12 4 4 -12 15 -12 17 3 11 9 -3 16 -12 16 -20 0 -8 4 -13 9 -12 5 2 41 -21
80 -49 39 -29 73 -53 77 -53 11 0 123 -90 142 -115 11 -13 22 -22 25 -19 3 3
22 -12 43 -33 21 -21 34 -32 30 -25 -6 10 1 9 23 -3 18 -9 29 -20 26 -25 -3
-5 8 -16 24 -25 43 -22 53 -18 11 5 -44 24 -25 26 21 3 31 -17 97 -18 885 -20
751 -2 853 -1 870 13 18 14 18 15 -3 5 -42 -21 -48 -10 -8 14 43 27 60 32 49
13 -4 -7 -3 -8 5 -4 6 4 8 12 5 18 -5 7 -2 9 8 5 10 -3 26 6 44 26 l29 32 -31
-25 c-16 -14 -9 -4 18 21 26 25 48 53 48 62 0 9 4 19 10 22 11 7 40 102 75
246 14 57 30 113 35 124 5 11 39 142 75 290 56 228 68 296 80 435 8 91 23 199
34 240 11 41 28 111 37 155 9 44 20 85 24 90 4 6 22 71 39 145 18 74 48 200
67 279 19 79 39 176 44 215 15 119 -7 233 -63 320 -31 50 -83 107 -90 100 -3
-3 -10 4 -17 15 -6 12 -17 21 -24 21 -8 0 -17 7 -20 16 -4 9 -9 14 -13 10 -3
-3 -15 1 -25 11 -10 9 -18 13 -18 8 0 -4 -6 -3 -13 3 -12 11 -61 23 -102 26
-25 1 -38 19 -54 76 -17 58 -49 120 -61 120 -6 0 -10 5 -10 11 0 14 -76 89
-84 82 -3 -3 -8 2 -12 11 -3 9 -12 16 -20 16 -8 0 -14 4 -14 9 0 6 -9 8 -20 6
-11 -2 -20 1 -20 6 0 6 -4 8 -9 4 -5 -3 -16 3 -23 13 -8 12 -22 18 -35 16 -13
-2 -23 0 -23 5 0 5 -13 7 -30 6 -16 -1 -30 1 -30 4 0 4 -24 6 -52 4 -29 -2
-65 -4 -80 -4 -16 -1 -28 -5 -28 -10 0 -4 -9 -6 -20 -4 -12 2 -23 -2 -27 -10
-3 -8 -9 -12 -14 -9 -5 3 -9 0 -9 -6 0 -6 -4 -8 -10 -5 -5 3 -10 1 -10 -5 0
-6 -4 -9 -9 -5 -5 3 -16 -1 -24 -9 -8 -8 -17 -12 -21 -9 -3 4 -6 1 -6 -5 0 -6
-8 -13 -17 -16 -26 -9 -93 -70 -93 -84 0 -7 -4 -12 -9 -12 -17 0 -62 -113 -91
-230 -47 -185 -80 -330 -80 -351 0 -11 -4 -18 -8 -15 -5 3 -19 -47 -32 -110
-13 -66 -26 -110 -31 -102 -4 7 -17 58 -28 113 -12 55 -26 116 -31 135 -5 19
-25 105 -45 190 -20 85 -40 164 -45 175 -6 11 -19 61 -30 112 -21 100 -79 240
-104 249 -9 3 -16 15 -16 26 0 10 -4 17 -9 13 -5 -3 -12 4 -16 15 -4 11 -10
18 -14 15 -5 -2 -21 7 -37 21 -37 32 -80 55 -88 47 -3 -4 -6 -2 -6 4 0 5 -18
15 -40 22 -41 12 -192 25 -200 17z m97 -270 c3 -3 -9 -4 -26 -4 -18 1 -34 5
-37 9 -4 8 55 3 63 -5z m33 -21 c0 -5 -5 -3 -10 5 -5 8 -10 20 -10 25 0 6 5 3
10 -5 5 -8 10 -19 10 -25z m-134 11 c-20 -9 -25 -16 -16 -21 7 -4 15 -3 19 2
7 12 106 12 117 1 4 -5 16 -8 26 -8 10 0 18 -4 18 -10 0 -5 4 -10 10 -10 15 0
60 -42 60 -56 0 -6 7 -14 15 -18 8 -3 15 -14 15 -25 0 -11 4 -22 9 -25 5 -4
12 -25 16 -49 4 -23 19 -94 35 -157 15 -63 42 -178 59 -255 18 -77 45 -194 61
-260 16 -66 39 -163 51 -215 12 -52 25 -99 29 -105 4 -5 20 -68 35 -138 l28
-129 44 4 c46 3 57 -7 21 -22 -22 -8 -22 -9 4 -7 15 1 26 6 25 11 -1 6 14 11
34 12 20 0 43 4 52 7 10 4 17 2 17 -3 0 -6 5 -10 11 -10 5 0 7 5 3 11 -5 8 -1
8 14 0 15 -8 22 -7 30 2 9 11 74 278 168 687 20 85 45 187 55 225 38 136 48
171 60 225 7 30 12 60 12 67 0 7 5 11 11 10 6 -1 10 6 10 15 -1 10 1 17 5 16
18 -2 31 3 31 13 0 5 -6 7 -12 3 -8 -4 -10 -3 -5 2 5 5 11 8 13 6 3 -1 17 12
31 29 24 29 28 30 34 13 7 -16 8 -16 8 5 1 24 1 24 17 5 11 -14 14 -15 11 -3
-4 13 3 16 39 16 24 0 41 -4 38 -8 -2 -4 -11 -6 -19 -2 -8 3 -15 0 -15 -5 0
-6 10 -9 21 -7 12 2 31 0 43 -6 20 -10 20 -9 2 5 -18 14 -18 15 3 13 11 -1 21
-6 21 -12 0 -7 13 -24 30 -38 30 -28 46 -35 35 -17 -11 18 1 11 21 -12 10 -12
13 -18 7 -14 -20 11 -15 -9 6 -28 10 -10 22 -33 25 -51 7 -37 -13 -167 -24
-160 -4 3 -13 -23 -19 -58 -7 -34 -26 -120 -42 -192 -54 -230 -97 -416 -134
-573 -20 -85 -34 -160 -31 -167 3 -8 13 -11 25 -8 28 7 27 -5 -1 -17 -23 -10
-23 -10 2 -7 18 1 25 8 27 27 1 14 19 97 41 185 22 88 61 252 87 365 64 278
75 316 86 299 7 -12 9 -11 10 1 1 8 1 19 0 24 -1 5 8 6 19 3 13 -3 23 0 27 9
14 38 157 68 192 40 8 -6 16 -10 18 -8 2 1 16 -4 32 -12 16 -9 32 -12 36 -8 5
4 5 2 1 -5 -3 -6 5 -23 18 -36 56 -56 54 -103 -18 -398 -69 -282 -116 -487
-116 -502 0 -8 -3 -17 -8 -19 -16 -7 -54 -201 -62 -323 -8 -108 -23 -186 -89
-465 -44 -184 -83 -352 -86 -372 -4 -21 -11 -38 -15 -38 -5 0 -11 -19 -15 -42
-16 -98 -79 -181 -147 -193 -18 -3 -355 -5 -748 -3 l-715 3 -48 27 c-27 14
-54 33 -60 41 -15 17 -213 167 -223 167 -8 0 -85 59 -104 80 -19 22 -136 110
-145 110 -4 0 -113 80 -241 178 -129 97 -244 182 -257 189 -12 6 -38 38 -57
69 -32 53 -35 65 -35 136 0 55 4 81 13 87 8 5 13 11 13 15 -3 14 93 87 120 93
16 3 32 10 35 14 7 12 90 11 112 0 43 -24 86 -41 90 -36 3 2 -6 14 -19 25
l-24 21 28 -17 c15 -9 26 -23 23 -30 -4 -11 52 -64 68 -64 4 0 119 -85 258
-190 139 -104 255 -190 259 -190 4 0 8 109 9 243 1 259 1 253 -65 532 -14 61
-37 160 -51 220 -14 61 -30 119 -35 130 -8 17 -31 113 -95 388 -25 111 -29
169 -11 204 9 17 13 33 10 37 -4 3 -1 6 6 6 7 0 11 7 8 14 -4 11 -1 13 11 9 9
-3 14 -3 10 2 -8 8 15 35 31 35 5 0 13 4 16 10 4 6 -1 7 -12 4 -15 -5 -15 -4
-3 4 10 8 19 7 30 -1 8 -6 12 -7 8 -3 -4 5 -3 15 3 23 13 15 39 18 39 3 0 -5
-7 -7 -15 -4 -8 4 -15 2 -15 -4 0 -8 28 -9 38 -2 1 2 6 3 11 4 5 0 13 5 18 10
4 5 3 6 -4 2 -6 -3 -14 -2 -17 2 -6 11 71 4 104 -8 3 -1 9 -2 13 -1 5 1 6 -3
2 -9 -5 -8 -11 -7 -21 1 -8 6 -14 8 -14 5 0 -4 -9 -2 -19 4 -14 7 -22 7 -27
-2 -4 -7 -3 -8 4 -4 7 4 12 3 12 -3 0 -5 9 -8 20 -6 11 2 22 0 25 -6 4 -5 14
-5 27 2 11 6 18 7 16 2 -6 -11 39 -53 48 -44 4 3 4 1 0 -6 -3 -6 2 -20 12 -30
12 -11 31 -66 50 -148 55 -226 83 -347 108 -455 13 -58 28 -114 34 -125 8 -18
60 -238 60 -257 0 -5 9 -8 19 -8 29 0 35 -18 9 -23 l-23 -4 23 -2 c43 -2 42 8
-20 274 -11 50 -24 95 -28 100 -4 6 -26 96 -50 200 -23 105 -57 253 -75 330
-87 368 -89 380 -79 442 6 37 14 57 21 56 7 -2 16 9 19 23 4 16 12 23 20 20
13 -5 18 6 15 27 0 4 2 6 7 6 19 -3 33 2 27 10 -6 11 23 31 45 30 8 0 2 -6
-14 -13z m200 -34 c-4 -3 -14 2 -24 12 -16 18 -16 18 6 6 13 -6 21 -14 18 -18z
m29 -22 c3 -6 -1 -7 -9 -4 -18 7 -21 14 -7 14 6 0 13 -4 16 -10z m1225 -120
c0 -5 -2 -10 -4 -10 -3 0 -8 5 -11 10 -3 6 -1 10 4 10 6 0 11 -4 11 -10z m265
-340 c3 -5 1 -10 -4 -10 -6 0 -11 5 -11 10 0 6 2 10 4 10 3 0 8 -4 11 -10z
m93 -10 c2 -5 9 -7 14 -4 7 4 8 2 4 -5 -6 -9 -11 -9 -23 1 -9 7 -28 11 -44 10
-16 -2 -29 1 -29 7 0 14 73 6 78 -9z m-123 0 c-3 -5 -15 -15 -25 -20 -16 -8
-18 -8 -14 5 3 8 10 12 15 9 5 -3 9 0 9 5 0 6 5 11 11 11 5 0 7 -4 4 -10z
m190 -30 c3 -5 1 -10 -4 -10 -6 0 -11 5 -11 10 0 6 2 10 4 10 3 0 8 -4 11 -10z
m-261 -15 c-4 -8 -11 -15 -16 -15 -6 0 -5 6 2 15 7 8 14 15 16 15 2 0 1 -7 -2
-15z m-2604 -1166 c36 -8 50 -15 50 -27 0 -14 -2 -15 -9 -3 -12 19 -135 28
-155 12 -9 -8 -16 -9 -21 -2 -3 6 4 13 17 15 13 3 32 7 43 9 11 3 21 5 22 6 1
0 25 -4 53 -10z m-154 -31 c4 -6 3 -8 -4 -4 -6 3 -28 -11 -49 -32 -26 -26 -30
-28 -13 -7 24 28 51 55 56 55 2 0 6 -5 10 -12z m424 -142 c63 -46 123 -92 133
-100 9 -9 22 -16 28 -16 5 0 7 -5 3 -12 -5 -8 -13 -5 -25 10 -9 12 -20 22 -23
22 -11 0 -261 191 -265 201 -2 6 5 4 15 -5 11 -8 71 -53 134 -100z m200 -146
c0 -4 35 -34 78 -65 42 -32 82 -63 87 -68 18 -19 -48 25 -110 72 -32 25 -65
51 -73 57 -12 9 -12 11 2 11 9 0 16 -4 16 -7z m220 -164 c0 -2 -9 -2 -20 1
-11 3 -20 9 -20 15 0 5 9 4 20 -2 11 -6 20 -12 20 -14z m-1100 -106 c0 -5 -2
-10 -4 -10 -3 0 -8 5 -11 10 -3 6 -1 10 4 10 6 0 11 -4 11 -10z m54 -56 c3 -8
2 -12 -4 -9 -6 3 -10 10 -10 16 0 14 7 11 14 -7z m257 -191 l24 -26 -27 19
c-15 10 -28 22 -28 27 0 12 5 8 31 -20z m139 -103 c87 -64 118 -90 90 -75 -41
23 -200 149 -200 158 0 6 6 4 13 -5 6 -8 50 -43 97 -78z m125 -90 c3 -5 1 -10
-4 -10 -6 0 -11 5 -11 10 0 6 2 10 4 10 3 0 8 -4 11 -10z m29 -26 c3 -8 2 -12
-4 -9 -6 3 -10 10 -10 16 0 14 7 11 14 -7z"/>
<path d="M2835 3190 c3 -5 8 -10 11 -10 2 0 4 5 4 10 0 6 -5 10 -11 10 -5 0
-7 -4 -4 -10z"/>
<path d="M2756 3163 c-6 -14 -5 -15 5 -6 7 7 10 15 7 18 -3 3 -9 -2 -12 -12z"/>
<path d="M2360 1855 c-8 -9 -8 -15 -2 -15 12 0 26 19 19 26 -2 2 -10 -2 -17
-11z"/>
<path d="M2236 1852 c-3 -4 4 -9 15 -9 23 -2 25 3 4 10 -8 4 -16 3 -19 -1z"/>
<path d="M2298 1843 c6 -2 18 -2 25 0 6 3 1 5 -13 5 -14 0 -19 -2 -12 -5z"/>
<path d="M965 359 c71 -52 105 -73 105 -66 0 8 -109 87 -118 87 -5 0 -15 7
-22 15 -7 8 -17 15 -24 15 -6 0 21 -23 59 -51z"/>
</g>
</svg>
